<?xml version="1.0" encoding="utf-8"?>
<!-- Generator: Adobe Illustrator 27.1.0, SVG Export Plug-In . SVG Version: 6.00 Build 0)  -->
<svg version="1.1" id="Layer_1" xmlns="http://www.w3.org/2000/svg" xmlns:xlink="http://www.w3.org/1999/xlink" x="0px" y="0px"
	 viewBox="0 0 608.9 102.6" style="enable-background:new 0 0 608.9 102.6;" xml:space="preserve">
<style type="text/css">
	.st0{fill:#FFFFFF;}
	.st1{fill:#FF8F08;}
	.st2{fill:#50B8FF;}
	.st3{fill:#EA1F4B;}
	.st4{fill:#10C65A;}
	.st5{fill:#1FB5AD;}
	.st6{fill:#EAE9D7;}
	.st7{fill:#F31B25;}
	.st8{fill:#DE1725;}
	.st9{opacity:0.2;fill:#FFFFFF;}
</style>
<g>
	<g>
		<path class="st0" d="M134.4,37.6c1.2,0,2.5,0.3,3.9,1c0.6,0.3,1.2,0.8,2,1.5c0.9,1,1.5,2,1.8,2.9c0.1,0.2,0.2,0.5,0.2,0.9
			c0,0.9-0.5,1.6-1.4,2c-0.3,0.1-0.5,0.1-0.6,0.1c-0.6,0-1.1-0.3-1.6-0.8c-0.1-0.2-0.4-0.7-0.8-1.5c-0.9-1.2-2.1-1.9-3.5-1.9
			c-1.3,0-2.4,0.6-3.3,1.7c-0.5,0.8-0.8,1.6-0.8,2.4c0,1.7,0.8,3,2.5,3.9c3.4,1.3,5.6,2.1,6.5,2.5c0.7,0.4,1.6,1.1,2.6,2
			c1,1.1,1.5,2,1.8,2.6c0.7,1.5,1.1,3,1.1,4.5c0,2.5-0.8,4.8-2.4,6.8c-0.7,0.8-1.3,1.4-1.8,1.7c-1.9,1.4-4,2.1-6.2,2.1
			c-3.1,0-5.7-1.2-7.9-3.6c-1.1-1.4-1.9-2.8-2.2-4.5c0-0.2,0-0.3,0-0.3c0-0.8,0.4-1.5,1.3-1.9c0.2-0.1,0.5-0.1,0.8-0.2
			c0.8,0,1.4,0.4,1.9,1.2c0.5,1.7,1.2,2.9,2.2,3.6c1.2,0.9,2.5,1.4,3.8,1.4h0.4c1.6,0,3.1-0.7,4.4-2c1.1-1.2,1.6-2.6,1.6-4.2
			c0-1.7-0.7-3.2-2-4.5c-0.8-0.7-1.7-1.2-2.5-1.5c-3-1.2-4.9-1.9-5.6-2.2c-0.6-0.3-1.2-0.8-1.9-1.4c-1-1.1-1.6-2-1.9-2.7
			c-0.5-1.1-0.7-2.2-0.7-3.3c0-2.1,0.8-4.1,2.3-5.8C129.9,38.5,132,37.6,134.4,37.6z"/>
		<path class="st0" d="M151.4,47.5c0.5,0,1,0.2,1.5,0.7c0.4,0.4,0.6,0.9,0.6,1.7v10.7c0,1.6,0.2,2.7,0.6,3.5
			c0.2,0.5,0.6,1.1,1.3,1.9c0.5,0.4,0.7,0.6,0.7,0.6c1.2,0.8,2.4,1.2,3.6,1.2h0.4c1.4,0,2.7-0.5,4-1.5c0.8-0.7,1.3-1.3,1.5-1.8
			c0.3-0.5,0.6-1.2,0.7-2.2c0.1-0.4,0.1-0.9,0.1-1.7V49.5c0-0.8,0.4-1.4,1.2-1.9c0.4-0.1,0.6-0.2,0.8-0.2c0.6,0,1.2,0.3,1.7,0.9
			c0.3,0.4,0.4,0.9,0.4,1.6v19.7c0,1.1-0.4,1.9-1.3,2.3c-0.4,0.1-0.6,0.2-0.8,0.2c-0.8,0-1.5-0.4-2-1.3c-0.2-0.2-0.5-0.3-0.7-0.3
			s-0.7,0.2-1.6,0.7c-0.7,0.4-1.7,0.6-2.8,0.8c-0.4,0.1-0.8,0.1-1.2,0.1c-3,0-5.6-1.1-7.8-3.3c-1-1.1-1.7-2.2-2.2-3.4
			c-0.5-1.2-0.8-2.7-0.8-4.7V49.9c0-1,0.3-1.6,0.8-2C150.5,47.6,150.9,47.5,151.4,47.5z"/>
		<path class="st0" d="M177.4,47.5c0.6,0,1.2,0.3,1.7,1c0.3,0.7,0.6,1.1,0.7,1.1c0,0,0.1,0.1,0.4,0.1h0.1c0.3,0,0.9-0.3,1.7-0.8
			c1.9-0.9,3.7-1.3,5.6-1.3c2.4,0,4.7,0.7,6.9,2.1c1.4,1,2.6,2.2,3.4,3.5c1.3,2.1,2,4.3,2,6.6v0.1c0,2.8-0.9,5.4-2.8,7.7
			c-1,1.1-1.7,1.8-2.2,2.1c-0.9,0.7-1.9,1.2-2.9,1.6c-1.6,0.6-3,0.9-4.3,0.9c-2.4,0-4.7-0.6-6.8-1.9c-0.2-0.1-0.4-0.1-0.5-0.1h-0.2
			c-0.6,0.1-1,0.5-1,1v8.5c0,1.1-0.4,1.8-1.1,2.2c-0.3,0.2-0.6,0.3-1,0.3c-0.9,0-1.6-0.5-2-1.4c-0.1-0.2-0.1-0.6-0.1-1V49.9
			c0-1.1,0.4-1.9,1.2-2.3C176.8,47.6,177.1,47.5,177.4,47.5z M179.4,59.8c0,2.1,0.7,4,2.2,5.7c1.7,1.7,3.6,2.5,5.8,2.5h0.3
			c2.1,0,4-0.8,5.6-2.4c1.6-1.7,2.4-3.6,2.4-5.8c0-2.4-1-4.5-3-6.3c-1.2-0.9-2.4-1.5-3.8-1.7c-0.5-0.1-0.8-0.1-1.1-0.1h-0.6
			c-1.4,0-2.8,0.5-4.3,1.4c-1.5,1-2.6,2.4-3.2,4.3C179.6,58.3,179.4,59.1,179.4,59.8z"/>
		<path class="st0" d="M206.6,47.5c0.6,0,1.1,0.3,1.6,0.8c0.2,0.1,0.4,0.2,0.6,0.2h0.1c0.2,0,0.6-0.1,1.1-0.4
			c1.1-0.4,2.1-0.6,3.1-0.6c2,0,3.9,0.7,5.6,2.1c0.3,0.3,0.4,0.4,0.4,0.5c-1.6,1.6-2.4,2.4-2.4,2.4c-0.2,0.1-0.4,0.2-0.5,0.2
			c-0.3,0-0.6-0.2-1.1-0.5c-0.6-0.3-1.3-0.5-2.1-0.5c-1.2,0-2.3,0.5-3.2,1.5c-0.8,0.9-1.2,1.9-1.2,3.1v13.5c0,0.9-0.2,1.5-0.7,1.9
			c-0.4,0.3-0.8,0.5-1.2,0.5h-0.2c-0.2,0-0.5-0.1-0.8-0.2c-0.4-0.2-0.8-0.6-1-1.2c-0.1-0.2-0.1-0.5-0.1-1v-20c0-0.8,0.2-1.4,0.7-1.8
			C205.6,47.7,206.1,47.5,206.6,47.5z"/>
		<path class="st0" d="M233.4,47.4c3.4,0,6.4,1.3,9,3.9c0.9,1,1.4,1.8,1.4,2.3c0,0.1,0,0.2,0,0.3c0,0.5-0.2,1-0.7,1.5
			c-0.3,0.2-4.2,3-11.9,8.5c0,0-0.6,0.5-1.9,1.4c-0.2,0.2-0.3,0.4-0.3,0.7v0.1c0,0.3,0.2,0.6,0.5,0.8c1.3,0.7,2.5,1,3.7,1h0.5
			c1.8,0,3.6-0.7,5.2-2.1c0.9-0.9,1.4-1.6,1.6-2c0.3-0.4,0.5-1,0.8-1.8c0.2-0.8,0.4-1.3,0.7-1.6c0.5-0.4,1-0.6,1.5-0.6
			c1,0,1.6,0.5,2,1.4c0.1,0.2,0.1,0.4,0.1,0.6v0.1c0,0.6-0.3,1.6-0.9,3c-0.3,0.8-0.9,1.6-1.7,2.6c-0.8,0.9-1.5,1.6-2.1,2
			c-1,0.8-2,1.3-2.8,1.6c-1.5,0.6-3,0.9-4.4,0.9h-0.5c-2.5,0-4.9-0.8-7.1-2.4c-1.1-0.8-2-1.8-2.7-2.8c-0.5-0.8-0.9-1.5-1.2-2.2
			c-0.7-1.7-1.1-3.4-1.1-4.9c0-2.9,1-5.6,2.9-8c0.9-1,1.6-1.6,2-1.8C228.3,48.3,230.7,47.4,233.4,47.4z M225.3,59.7
			c0,1.1,0.1,1.8,0.4,2c0.2,0.2,0.5,0.3,0.8,0.3c0.2,0,0.7-0.3,1.3-0.8c0.1,0,3.3-2.3,9.6-6.8c0.2-0.2,0.4-0.5,0.4-0.8v-0.1
			c0-0.3-0.2-0.5-0.5-0.8c-1.3-0.7-2.5-1-3.7-1h-0.4c-1.9,0-3.7,0.7-5.4,2.2C226.1,55.5,225.3,57.5,225.3,59.7z"/>
		<path class="st0" d="M250.9,47.5c0.7,0,1.3,0.3,1.8,1c0.2,0.3,0.5,0.5,0.9,0.5c0.2,0,0.7-0.2,1.6-0.6c1.1-0.4,2.2-0.6,3.3-0.6
			c2.2,0,4.3,0.7,6.1,2.2c0.5,0.5,0.9,0.8,1.2,0.8h0.1c0.3,0,0.8-0.4,1.6-1.1c1.8-1.3,3.7-1.9,5.9-1.9c2.3,0,4.4,0.8,6.4,2.5
			c1,1.1,1.7,1.9,1.9,2.5c0.7,1.4,1.1,2.6,1.1,3.6v13.5c0,0.8-0.4,1.4-1.3,1.8c-0.1,0.1-0.4,0.1-0.7,0.2c-0.8,0-1.4-0.4-1.9-1.2
			c-0.1-0.3-0.2-0.7-0.2-1.2v-13c-0.1-0.8-0.4-1.6-1.1-2.5c-1.2-1.4-2.6-2.1-4.3-2.1c-1.6,0-3,0.6-4.1,1.9c-0.4,0.5-0.7,1-0.9,1.6
			c-0.2,0.6-0.3,0.9-0.3,1.1v13.1c0,1.1-0.4,1.9-1.2,2.3c-0.2,0.1-0.4,0.1-0.8,0.2c-0.8,0-1.5-0.4-1.9-1.2c-0.1-0.3-0.2-0.7-0.2-1.2
			V56.4c0-0.6-0.3-1.3-1-2.3c-1.2-1.5-2.7-2.2-4.4-2.2c-1.8,0-3.3,0.8-4.5,2.4c-0.5,0.9-0.8,1.6-0.8,2.2v13c0,1.2-0.4,1.9-1.2,2.3
			c-0.3,0.1-0.5,0.2-0.8,0.2c-0.7,0-1.3-0.4-1.8-1.1c-0.2-0.3-0.2-0.8-0.2-1.4V49.9c0-1,0.3-1.7,0.8-2
			C250,47.6,250.4,47.5,250.9,47.5z"/>
		<path class="st0" d="M298.4,47.4c3.4,0,6.4,1.3,9,3.9c0.9,1,1.4,1.8,1.4,2.3c0,0.1,0,0.2,0,0.3c0,0.5-0.2,1-0.7,1.5
			c-0.3,0.2-4.2,3-11.9,8.5c0,0-0.6,0.5-1.9,1.4c-0.2,0.2-0.3,0.4-0.3,0.7v0.1c0,0.3,0.2,0.6,0.5,0.8c1.3,0.7,2.5,1,3.7,1h0.5
			c1.8,0,3.6-0.7,5.2-2.1c0.9-0.9,1.4-1.6,1.6-2c0.3-0.4,0.5-1,0.8-1.8c0.2-0.8,0.4-1.3,0.7-1.6c0.5-0.4,1-0.6,1.5-0.6
			c1,0,1.6,0.5,2,1.4c0.1,0.2,0.1,0.4,0.1,0.6v0.1c0,0.6-0.3,1.6-0.9,3c-0.3,0.8-0.9,1.6-1.7,2.6c-0.8,0.9-1.5,1.6-2.1,2
			c-1,0.8-2,1.3-2.8,1.6c-1.5,0.6-3,0.9-4.4,0.9h-0.5c-2.5,0-4.9-0.8-7.1-2.4c-1.1-0.8-2-1.8-2.7-2.8c-0.5-0.8-0.9-1.5-1.2-2.2
			c-0.7-1.7-1.1-3.4-1.1-4.9c0-2.9,1-5.6,2.9-8c0.9-1,1.6-1.6,2-1.8C293.3,48.3,295.7,47.4,298.4,47.4z M290.3,59.7
			c0,1.1,0.1,1.8,0.4,2c0.2,0.2,0.5,0.3,0.8,0.3c0.2,0,0.7-0.3,1.3-0.8c0.1,0,3.3-2.3,9.6-6.8c0.2-0.2,0.4-0.5,0.4-0.8v-0.1
			c0-0.3-0.2-0.5-0.5-0.8c-1.3-0.7-2.5-1-3.7-1h-0.4c-1.9,0-3.7,0.7-5.4,2.2C291.1,55.5,290.3,57.5,290.3,59.7z"/>
		<path class="st0" d="M326.4,37.6h25c1.2,0,1.9,0.5,2.3,1.4c0.1,0.3,0.1,0.5,0.1,0.7c0,1-0.5,1.6-1.5,2c-0.2,0.1-0.5,0.1-0.9,0.1
			H343c-0.9,0-1.6,0.5-2,1.4c-0.1,0.2-0.1,0.3-0.1,0.4v25.8c0,1.2-0.4,2-1.3,2.4c-0.3,0.1-0.6,0.1-0.8,0.1c-0.8,0-1.4-0.4-1.9-1.2
			c-0.1-0.3-0.2-0.7-0.2-1.3V43.9c0-0.9-0.4-1.5-1.3-1.9c-0.2-0.1-0.5-0.1-0.7-0.1h-8.4c-1.2,0-1.9-0.5-2.3-1.4
			c-0.1-0.3-0.1-0.5-0.1-0.7c0-1,0.5-1.6,1.5-2C325.7,37.7,326,37.6,326.4,37.6z"/>
		<path class="st0" d="M367.5,47.4c3.4,0,6.4,1.3,9,3.9c0.9,1,1.4,1.8,1.4,2.3c0,0.1,0,0.2,0,0.3c0,0.5-0.2,1-0.7,1.5
			c-0.3,0.2-4.2,3-11.9,8.5c0,0-0.6,0.5-1.9,1.4c-0.2,0.2-0.3,0.4-0.3,0.7v0.1c0,0.3,0.2,0.6,0.5,0.8c1.3,0.7,2.5,1,3.7,1h0.5
			c1.8,0,3.6-0.7,5.2-2.1c0.9-0.9,1.4-1.6,1.6-2c0.3-0.4,0.5-1,0.8-1.8c0.2-0.8,0.4-1.3,0.7-1.6c0.5-0.4,1-0.6,1.5-0.6
			c1,0,1.6,0.5,2,1.4c0.1,0.2,0.1,0.4,0.1,0.6v0.1c0,0.6-0.3,1.6-0.9,3c-0.3,0.8-0.9,1.6-1.7,2.6c-0.8,0.9-1.5,1.6-2.1,2
			c-1,0.8-2,1.3-2.8,1.6c-1.5,0.6-3,0.9-4.4,0.9h-0.4c-2.5,0-4.9-0.8-7.1-2.4c-1.1-0.8-2-1.8-2.7-2.8c-0.5-0.8-0.9-1.5-1.2-2.2
			c-0.7-1.7-1-3.4-1-4.9c0-2.9,1-5.6,2.9-8c0.9-1,1.6-1.6,2-1.8C362.4,48.3,364.8,47.4,367.5,47.4z M359.4,59.7c0,1.1,0.1,1.8,0.4,2
			c0.2,0.2,0.5,0.3,0.8,0.3c0.2,0,0.7-0.3,1.3-0.8c0.1,0,3.3-2.3,9.7-6.8c0.2-0.2,0.4-0.5,0.4-0.8v-0.1c0-0.3-0.2-0.5-0.5-0.8
			c-1.3-0.7-2.5-1-3.7-1h-0.5c-1.9,0-3.7,0.7-5.4,2.2C360.2,55.5,359.4,57.5,359.4,59.7z"/>
		<path class="st0" d="M394.3,47.5c2.5,0,4.9,0.7,7,2.2c0.5,0.4,0.7,1,0.7,1.6c0,0.7-0.4,1.3-1.1,1.7c-0.4,0.2-0.7,0.3-1,0.3
			c-0.5,0-1.1-0.2-1.8-0.7c-1.2-0.7-2.5-1-3.9-1h-0.1c-1.2,0-2.5,0.4-3.9,1.1c-1.7,1.1-2.9,2.5-3.6,4.4c-0.3,0.9-0.4,1.8-0.4,2.6
			c0,2.3,0.9,4.2,2.6,6c1.1,0.9,2.2,1.5,3.3,1.8c0.8,0.2,1.4,0.3,2,0.3h0.2c1.6,0,3.2-0.5,4.6-1.4c0.4-0.2,0.7-0.3,1.1-0.3
			c0.6,0,1.2,0.3,1.7,0.9c0.2,0.4,0.3,0.8,0.3,1.1c0,0.9-0.4,1.5-1.3,2c-1.9,1.2-4.1,1.8-6.5,1.8c-2.6,0-5.1-0.9-7.4-2.6
			c-0.5-0.4-1.1-1-1.7-1.7c-0.7-0.8-1.2-1.5-1.4-2c-1.1-1.9-1.6-3.9-1.6-6c0-2.7,0.8-5.1,2.5-7.4c0.3-0.4,0.8-1,1.6-1.7
			c0.9-0.7,1.7-1.3,2.5-1.7C390.4,47.9,392.3,47.5,394.3,47.5z"/>
		<path class="st0" d="M408.7,37.7h0.2c0.7,0,1.3,0.4,1.8,1.2c0.1,0.3,0.2,0.6,0.2,0.8v8.2c0,0.5,0.2,0.8,0.7,1c0.1,0,0.1,0,0.2,0
			l0,0c0.2,0,0.7-0.2,1.5-0.6c1.3-0.5,2.7-0.8,4-0.8c2.7,0,5.1,0.9,7.2,2.8c1,1,1.6,1.7,1.8,2.2c0.7,1.1,1.2,2.3,1.5,3.6
			c0.2,0.6,0.3,1.7,0.3,3.1v10.6c0,1.1-0.4,1.9-1.3,2.2c-0.3,0.1-0.6,0.2-0.7,0.2H426c-0.8,0-1.4-0.4-1.8-1.2
			c-0.1-0.3-0.2-0.6-0.2-1.1V58.2c0-1.8-0.6-3.4-1.9-4.7s-2.9-1.9-4.7-1.9c-1.9,0-3.5,0.7-4.9,2.3c-1.1,1.2-1.6,2.7-1.6,4.4v11.8
			c0,0.6-0.3,1.1-0.9,1.6c-0.4,0.2-0.7,0.4-1.1,0.4h-0.2c-0.7,0-1.2-0.4-1.7-1.1c-0.2-0.3-0.3-0.8-0.3-1.4V40.1
			c0-1.1,0.4-1.9,1.2-2.3C408.2,37.7,408.4,37.7,408.7,37.7z"/>
		<path class="st0" d="M434.7,47.5c0.7,0,1.3,0.3,1.7,0.9c0.3,0.4,0.6,0.6,1,0.6c0.2,0,0.6-0.2,1.1-0.5c1.5-0.7,3.1-1.1,4.7-1.1
			c3.2,0,5.9,1.2,8.1,3.7c0.8,1,1.4,1.9,1.6,2.6c0.6,1.3,1,2.9,1,5v10.8c0,1-0.3,1.6-0.8,2c-0.4,0.3-0.8,0.5-1.3,0.5s-1-0.2-1.5-0.7
			c-0.4-0.4-0.5-0.9-0.5-1.7V58.8c0-1.5-0.2-2.7-0.6-3.4c-0.8-1.6-2-2.8-3.8-3.4c-0.8-0.2-1.5-0.4-2.2-0.4c-1.9,0-3.5,0.7-4.9,2.2
			c-0.7,0.9-1.2,1.9-1.5,3c-0.1,0.4-0.1,1.1-0.1,2v10.7c0,1-0.3,1.6-0.8,2c-0.4,0.3-0.8,0.5-1.3,0.5s-1-0.2-1.5-0.7
			c-0.4-0.4-0.6-0.9-0.6-1.7V49.9c0-0.8,0.2-1.4,0.6-1.8C433.7,47.7,434.2,47.5,434.7,47.5z"/>
		<path class="st0" d="M470.8,47.4h0.4c2.5,0,5,0.9,7.3,2.6c1.1,0.9,1.8,1.7,2.3,2.3c1.6,2.2,2.4,4.7,2.4,7.4c0,3.2-1.2,6.1-3.5,8.6
			c-1.3,1.2-2.5,2-3.6,2.5c-1.7,0.8-3.4,1.2-5,1.2h-0.4c-2.6,0-5-0.9-7.4-2.6c-0.9-0.7-1.6-1.4-2.1-2.1c-1.8-2.3-2.6-4.8-2.6-7.6
			c0-3,1.1-5.8,3.2-8.2c1.1-1.1,1.9-1.8,2.3-2C466.4,48.1,468.5,47.4,470.8,47.4z M462.9,59.7v0.2c0,2.1,0.8,3.9,2.4,5.7
			c1.7,1.5,3.5,2.3,5.5,2.3h0.3c2.2,0,4.2-0.9,5.9-2.7c1.4-1.6,2-3.4,2-5.2v-0.3c0-2.3-0.8-4.3-2.5-5.9c-0.9-0.8-1.9-1.4-2.8-1.7
			s-1.8-0.5-2.5-0.5h-0.5c-1.3,0-2.7,0.4-4.1,1.2c-0.5,0.3-1.1,0.8-1.8,1.5c-0.8,1.1-1.4,2-1.6,2.8C463,57.9,462.9,58.8,462.9,59.7z
			"/>
		<path class="st0" d="M490,37.7c0.8,0,1.4,0.4,1.8,1.3c0.1,0.3,0.1,0.6,0.1,1v29.7c0,1.1-0.4,1.7-1.1,2.1c-0.2,0.1-0.4,0.1-0.8,0.2
			c-0.8,0-1.4-0.4-1.8-1.3c-0.1-0.3-0.1-0.6-0.1-1V39.9c0-1.1,0.4-1.7,1.2-2.1C489.4,37.8,489.7,37.7,490,37.7z"/>
		<path class="st0" d="M508.7,47.4h0.4c2.5,0,5,0.9,7.4,2.6c1.1,0.9,1.8,1.7,2.3,2.3c1.6,2.2,2.4,4.7,2.4,7.4c0,3.2-1.2,6.1-3.5,8.6
			c-1.3,1.2-2.5,2-3.6,2.5c-1.7,0.8-3.4,1.2-5,1.2h-0.4c-2.6,0-5-0.9-7.4-2.6c-0.9-0.7-1.6-1.4-2.1-2.1c-1.8-2.3-2.6-4.8-2.6-7.6
			c0-3,1.1-5.8,3.2-8.2c1.1-1.1,1.9-1.8,2.3-2C504.3,48.1,506.5,47.4,508.7,47.4z M500.8,59.7v0.2c0,2.1,0.8,3.9,2.4,5.7
			c1.7,1.5,3.5,2.3,5.5,2.3h0.3c2.2,0,4.2-0.9,5.9-2.7c1.4-1.6,2-3.4,2-5.2v-0.3c0-2.3-0.8-4.3-2.5-5.9c-0.9-0.8-1.9-1.4-2.8-1.7
			s-1.8-0.5-2.5-0.5h-0.5c-1.3,0-2.7,0.4-4.1,1.2c-0.5,0.3-1.1,0.8-1.8,1.5c-0.8,1.1-1.4,2-1.6,2.8C501,57.9,500.8,58.8,500.8,59.7z
			"/>
		<path class="st0" d="M547.9,47.5c0.5,0,1,0.2,1.5,0.7c0.4,0.4,0.6,0.9,0.6,1.8v19.9c0,2.2-0.6,4.3-1.9,6.4c-0.3,0.6-1,1.4-2,2.3
			s-2.1,1.7-3.2,2.2c-1.8,0.8-3.5,1.2-5.1,1.2h-0.1h-0.1c-0.7,0-1.2-0.3-1.7-1c-0.2-0.4-0.4-0.8-0.4-1.1c0-0.7,0.3-1.3,1-1.8
			c0.3-0.2,0.9-0.3,1.8-0.3c0.7-0.1,1.3-0.2,1.9-0.5c2.1-0.8,3.6-2.2,4.6-4c0.6-1.2,0.9-2.4,0.9-3.6v-0.6c0,0,0,0-0.1,0
			c-1.5,1.3-3.2,2.2-5.1,2.7c-1,0.2-2,0.4-2.9,0.4c-3.7,0-6.8-1.4-9.4-4.3c-1.5-1.7-2.4-3.7-2.8-6c-0.1-0.8-0.2-1.5-0.2-1.8v-0.4
			c0-1.6,0.4-3.2,1.1-4.9c0.3-0.7,0.8-1.6,1.6-2.6c1-1.1,1.8-1.9,2.6-2.4c2.2-1.5,4.5-2.2,6.9-2.2h0.4c2,0,4,0.6,6.1,1.7
			c0.4,0.3,0.7,0.4,1,0.4c0.5,0,0.9-0.4,1.1-1.1C546.5,47.9,547.1,47.5,547.9,47.5z M529.5,59.7V60c0,2.1,0.8,4,2.5,5.7
			c0.9,0.8,1.8,1.3,2.4,1.6c1.1,0.4,2.2,0.6,3.2,0.6c2.4,0,4.4-0.9,6.2-2.8c1.3-1.6,2-3.3,2-5.1v-0.3c0-2.1-0.8-4-2.5-5.7
			c-0.9-0.8-1.7-1.3-2.4-1.6c-1.1-0.4-2.2-0.7-3.2-0.7c-2.4,0-4.4,0.9-6.2,2.8C530.2,56.1,529.5,57.8,529.5,59.7z"/>
		<path class="st0" d="M556.6,39.2L556.6,39.2c1,0,1.8,0.5,2.3,1.4c0.2,0.3,0.3,0.7,0.3,1.1v0.2c0,0.9-0.5,1.6-1.5,2.2
			c-0.4,0.2-0.7,0.2-1.1,0.2c-1.1,0-1.9-0.5-2.4-1.6c-0.1-0.3-0.2-0.6-0.2-0.8v-0.2c0-1.1,0.6-1.9,1.7-2.4
			C556.1,39.3,556.4,39.2,556.6,39.2z M556.5,47.5h0.3c0.5,0,1,0.3,1.5,0.8c0.3,0.4,0.4,0.8,0.4,1.1V70c0,0.8-0.4,1.4-1.2,1.8
			c-0.3,0.1-0.6,0.2-0.7,0.2h-0.2c-0.7,0-1.2-0.4-1.7-1.1c-0.2-0.3-0.3-0.8-0.3-1.4V50c0-1.1,0.3-1.8,1-2.2
			C555.9,47.6,556.2,47.5,556.5,47.5z"/>
		<path class="st0" d="M574.4,47.4c3.4,0,6.4,1.3,9,3.9c0.9,1,1.4,1.8,1.4,2.3c0,0.1,0,0.2,0,0.3c0,0.5-0.2,1-0.7,1.5
			c-0.3,0.2-4.2,3-11.9,8.5c0,0-0.6,0.5-1.9,1.4c-0.2,0.2-0.3,0.4-0.3,0.7v0.1c0,0.3,0.2,0.6,0.5,0.8c1.3,0.7,2.5,1,3.7,1h0.5
			c1.8,0,3.6-0.7,5.2-2.1c0.9-0.9,1.4-1.6,1.6-2c0.3-0.4,0.5-1,0.8-1.8c0.2-0.8,0.4-1.3,0.7-1.6c0.5-0.4,1-0.6,1.5-0.6
			c1,0,1.6,0.5,2,1.4c0.1,0.2,0.1,0.4,0.1,0.6v0.1c0,0.6-0.3,1.6-0.9,3c-0.3,0.8-0.9,1.6-1.6,2.6c-0.8,0.9-1.5,1.6-2.1,2
			c-1,0.8-2,1.3-2.8,1.6c-1.5,0.6-3,0.9-4.4,0.9h-0.6c-2.5,0-4.9-0.8-7.1-2.4c-1.1-0.8-2-1.8-2.7-2.8c-0.5-0.8-0.9-1.5-1.2-2.2
			c-0.7-1.7-1.1-3.4-1.1-4.9c0-2.9,1-5.6,2.9-8c0.9-1,1.6-1.6,2-1.8C569.2,48.3,571.7,47.4,574.4,47.4z M566.2,59.7
			c0,1.1,0.1,1.8,0.4,2c0.2,0.2,0.5,0.3,0.8,0.3c0.2,0,0.7-0.3,1.3-0.8c0.1,0,3.3-2.3,9.6-6.8c0.2-0.2,0.4-0.5,0.4-0.8v-0.1
			c0-0.3-0.2-0.5-0.5-0.8c-1.3-0.7-2.5-1-3.7-1H574c-1.9,0-3.7,0.7-5.4,2.2C567.1,55.5,566.2,57.5,566.2,59.7z"/>
		<path class="st0" d="M597,47.4c1,0,2.1,0.3,3.1,0.9c1.5,1,2.2,2,2.2,3c0,0.7-0.4,1.3-1.1,1.8c-0.3,0.2-0.7,0.3-1.1,0.3
			c-0.5,0-1.1-0.3-1.6-0.8c-0.4-0.7-1-1.1-1.6-1.1h-0.1c-0.7,0-1.3,0.4-1.6,1.1c-0.1,0.3-0.1,0.5-0.1,0.7c0,0.7,0.4,1.3,1.3,1.8
			c3.1,2.1,4.8,3.2,5.2,3.5c0.6,0.5,1,0.9,1.2,1.2c1,1.4,1.6,2.9,1.6,4.5c0,2.5-1,4.6-3,6.1c-1.4,1-2.8,1.4-4.5,1.4
			c-1.5,0-3-0.5-4.4-1.4c-0.9-0.7-1.6-1.4-2-2.2c-0.4-0.7-0.6-1.3-0.6-1.8l0,0c0-0.6,0.3-1.2,0.9-1.6c0.4-0.2,0.8-0.4,1.2-0.4
			c0.8,0,1.4,0.4,1.8,1.1c0.2,0.4,0.4,0.8,0.6,1.1c0.7,0.8,1.6,1.2,2.5,1.2c1.1,0,2-0.4,2.7-1.3c0.4-0.6,0.6-1.3,0.6-2
			c0-1.3-0.7-2.3-2.1-3.2c-3-2-4.6-3.1-4.9-3.3c-1.5-1.3-2.2-2.8-2.2-4.7c0-1.5,0.6-2.8,1.7-4.1C593.9,48,595.3,47.4,597,47.4z"/>
	</g>
</g>
<g>
	<path class="st1" d="M66.3,21.3H36.8c-1.9,0-3.5,1.5-3.5,3.4v29.5c0,1.9,1.6,3.5,3.5,3.5c1.9,0,3.5-1.5,3.5-3.5v-26h26
		c1.9,0,3.5-1.6,3.5-3.5C69.8,22.8,68.2,21.3,66.3,21.3z"/>
	<path class="st2" d="M107,21.2H77.4c-1.9,0-3.5,1.6-3.5,3.5c0,1.9,1.6,3.5,3.5,3.5h26v26c0,1.9,1.6,3.5,3.5,3.5s3.5-1.6,3.5-3.5
		V24.7C110.4,22.8,108.9,21.2,107,21.2z"/>
	<path class="st3" d="M107,61.9c-1.9,0-3.5,1.6-3.5,3.5v26h-26c-1.9,0-3.5,1.6-3.5,3.5s1.6,3.5,3.5,3.5H107l0,0l0,0
		c1.7,0,3.1-1.2,3.4-2.8c0-0.2,0.1-0.5,0.1-0.7V65.4C110.4,63.5,108.9,61.9,107,61.9z"/>
	<path class="st4" d="M66.3,91.5h-26v-26c0-1.9-1.6-3.5-3.5-3.5c-1.9,0-3.5,1.5-3.5,3.5V95c0,1.9,1.6,3.5,3.5,3.5h29.5
		c1.9,0,3.5-1.6,3.5-3.5C69.8,93,68.2,91.5,66.3,91.5z"/>
	<path class="st5" d="M98.3,47.3c-0.5-0.5-1.2-0.8-2-0.8H53.4c-2.2,0-4,0.8-5.5,2.3c-1.5,1.5-2.3,3.4-2.3,5.5c0,2.2,0.8,4,2.3,5.5
		s3.4,2.3,5.5,2.3h10.2c0.6,0,1.2,0.2,1.6,0.7c0.5,0.4,0.7,1,0.7,1.6s-0.2,1.2-0.7,1.6c-0.4,0.5-1,0.7-1.6,0.7H48.3
		c-0.8,0-1.4,0.3-2,0.8c-0.5,0.5-0.8,1.2-0.8,2c0,0.8,0.3,1.4,0.8,2c0.5,0.5,1.2,0.8,2,0.8h15.2c2.2,0,4-0.8,5.5-2.3
		s2.3-3.4,2.3-5.5s-0.8-4-2.3-5.5s-3.4-2.3-5.5-2.3H53.4c-0.6,0-1.2-0.2-1.6-0.7c-0.5-0.4-0.7-1-0.7-1.6s0.2-1.2,0.7-1.6
		c0.4-0.4,1-0.7,1.6-0.7h30v17.5c0,0.8,0.3,1.4,0.8,2c0.5,0.5,1.2,0.8,2,0.8c0.8,0,1.4-0.3,2-0.8c0.5-0.5,0.8-1.2,0.8-2V52h7.4
		c0.8,0,1.4-0.3,2-0.8c0.5-0.5,0.8-1.2,0.8-2C99.1,48.4,98.8,47.8,98.3,47.3z"/>
</g>
<!-- <g>
	<path class="st0" d="M7.4,26.9c0,0-1.6,0.7-2.1,1.5S4,30.5,4.2,31.2c0.1,0.7,0.5,0.3,0.5,0.3s-1,1.1-0.4,2.3s0.6,1.1,0.6,1.1
		S5,34.3,5.2,34c0,0-0.1,2.2,1.4,2.7c1.5,0.5,3.9,0.7,4.9-0.3l-0.6-0.3c0,0,1.4,0.4,2.6-1c1.2-1.5,0.4-3.3,0.4-3.3l-0.3,0.4
		c0,0,0.4-0.8-0.3-2.3c-0.7-1.5-2-3.1-2-3.1l0.3,0.9C11.6,27.8,9.2,25.9,7.4,26.9z"/>
	<path class="st6" d="M12,32.6c-1.4,1.4-3.4,0.8-4.5-0.3c0.1,0.3,0,0.8,0.5,0.9c-2.4,0-2.6-2.7-2.7-4.8c-0.6,0.8-1.2,2.1-1.1,2.7
		c0.1,0.7,0.5,0.3,0.5,0.3s-1,1.1-0.4,2.3s0.6,1.1,0.6,1.1S5,34.3,5.2,34c0,0-0.1,2.2,1.4,2.7c1.5,0.5,3.9,0.7,4.9-0.3l-0.6-0.3
		c0,0,1.4,0.4,2.6-1c1.2-1.5,0.4-3.3,0.4-3.3l-0.3,0.4c0,0,0.4-0.8-0.3-2.3c-0.5,0.5-1.1,1-1.8,1.2C13.2,31.3,11.2,32.2,12,32.6z"/>
	<path class="st6" d="M7.5,32.3c0-0.1-0.1-0.1-0.1-0.2C7.4,32.2,7.4,32.3,7.5,32.3z"/>
	<path class="st7" d="M49,9.7c-1.7-1.9-6.4-3.5-10.7-3.9c0,0,0,0,0,0c-2.5-2.2-10.5-2.7-13.7-2.4c-1.7,0.2-8,1.8-12.1,6.5
		c-4.1,4.7-5.6,17.8-4.6,18.9c0.4,0.5,0.9,0.5,1.3,0.4c0.5-0.2,0.9-0.8,0.9-1.3c0-0.9,0.6-2.7,4.2-3.2c0.8-0.1,1.5-0.3,2.1-0.6
		c1.5-0.7,3.3,0,4.1,1.5c0.2,0.4,0.4,0.8,0.6,1.1c0.8,1.2,1.4,2.6,1.7,4.1c0.8,3.4,3.1,5.1,3.1,5.1c4.7,0,29.7-18.4,28.9-21.3
		C54,11.8,51.2,12.2,49,9.7z"/>
	<path class="st8" d="M51.1,11.4C51.1,11.4,51.1,11.4,51.1,11.4C44.5,19.2,35.5,25.2,26.5,28c-2.6,0.8-1.3-5.1,0.2-7.7
		c-1.5,1.4-2.3,3.9-4.1,3.2c-4.1-1.9-3.6-7.5-6.4-11.2c1.6,5.3-2.1,10.9-6.5,11c-0.6,0-1.2-0.1-1.7-0.3c-0.4,3-0.4,5.4,0,5.9
		c0.4,0.5,0.9,0.5,1.3,0.4c0.5-0.2,0.9-0.8,0.9-1.3c0-0.9,0.6-2.7,4.2-3.2c0.8-0.1,1.5-0.3,2.1-0.6c1.5-0.7,3.3,0,4.1,1.5
		c0.2,0.4,0.4,0.8,0.6,1.1c0.8,1.2,1.4,2.6,1.7,4.1c0.8,3.4,3.1,5.1,3.1,5.1c4.7,0,29.7-18.4,28.9-21.3
		C54.2,12.7,52.7,12.3,51.1,11.4z"/>
	<g>
		<path class="st0" d="M30.6,43.1c0,0-5.1-3.5-5.3-7c-0.2-3.5,25.9-23.8,30.3-21.9c4.4,2,5.3,5.7,4.9,6.8S41.9,28.3,30.6,43.1z"/>
	</g>
	<path class="st9" d="M29.3,4.7c0,0-7.5-1.5-8.3,3.2C20.2,12.6,35.6,6.8,29.3,4.7z"/>
</g> -->
</svg>
