<svg version="1.2" xmlns="http://www.w3.org/2000/svg" viewBox="0 0 609 103" width="569" height="96">
	<title>supreme_logo_footer-white-svg</title>
	<style>
		.s0 { fill: #1c1c1c } 
		.s1 { fill: #ff8f08 } 
		.s2 { fill: #50b8ff } 
		.s3 { fill: #ea1f4b } 
		.s4 { fill: #10c65a } 
		.s5 { fill: #1fb5ad } 
		.s6 { fill: #ffffff } 
		.s7 { fill: #eae9d7 } 
		.s8 { fill: #f31b25 } 
		.s9 { fill: #de1725 } 
		.s10 { opacity: .2;fill: #ffffff } 
	</style>
	<g id="Layer">
		<g id="Layer">
			<path id="Layer" class="s0" d="m125.2 40.9c1.2 0 2.5 0.3 3.9 1 0.6 0.3 1.2 0.8 2 1.5 0.9 1 1.5 2 1.8 2.9 0.1 0.2 0.2 0.5 0.2 0.9 0 0.9-0.5 1.6-1.4 2-0.3 0.1-0.5 0.1-0.6 0.1-0.6 0-1.1-0.3-1.6-0.8-0.1-0.2-0.4-0.7-0.8-1.5-0.9-1.2-2.1-1.9-3.5-1.9-1.3 0-2.4 0.6-3.3 1.7-0.5 0.8-0.8 1.6-0.8 2.4 0 1.7 0.8 3 2.5 3.9 3.4 1.3 5.6 2.1 6.5 2.5 0.7 0.4 1.6 1.1 2.6 2 1 1.1 1.5 2 1.8 2.6 0.7 1.5 1.1 3 1.1 4.5 0 2.5-0.8 4.8-2.4 6.8-0.7 0.8-1.3 1.4-1.8 1.7-1.9 1.4-4 2.1-6.2 2.1-3.1 0-5.7-1.2-7.9-3.6-1.1-1.4-1.9-2.8-2.2-4.5q0-0.3 0-0.3c0-0.8 0.4-1.5 1.3-1.9 0.2-0.1 0.5-0.1 0.8-0.2 0.8 0 1.4 0.4 1.9 1.2 0.5 1.7 1.2 2.9 2.2 3.6 1.2 0.9 2.5 1.4 3.8 1.4h0.4c1.6 0 3.1-0.7 4.4-2 1.1-1.2 1.6-2.6 1.6-4.2 0-1.7-0.7-3.2-2-4.5-0.8-0.7-1.7-1.2-2.5-1.5-3-1.2-4.9-1.9-5.6-2.2-0.6-0.3-1.2-0.8-1.9-1.4-1-1.1-1.6-2-1.9-2.7-0.5-1.1-0.7-2.2-0.7-3.3 0-2.1 0.8-4.1 2.3-5.8 1.5-1.6 3.6-2.5 6-2.5z"/>
			<path id="Layer" class="s0" d="m142.2 50.8c0.5 0 1 0.2 1.5 0.7 0.4 0.4 0.6 0.9 0.6 1.7v10.7c0 1.6 0.2 2.7 0.6 3.5 0.2 0.5 0.6 1.1 1.3 1.9 0.5 0.4 0.7 0.6 0.7 0.6q1.8 1.2 3.6 1.2h0.4c1.4 0 2.7-0.5 4-1.5q1.2-1 1.5-1.8c0.3-0.5 0.6-1.2 0.7-2.2 0.1-0.4 0.1-0.9 0.1-1.7v-11.1c0-0.8 0.4-1.4 1.2-1.9 0.4-0.1 0.6-0.2 0.8-0.2 0.6 0 1.2 0.3 1.7 0.9 0.3 0.4 0.4 0.9 0.4 1.6v19.7c0 1.1-0.4 1.9-1.3 2.3-0.4 0.1-0.6 0.2-0.8 0.2-0.8 0-1.5-0.4-2-1.3-0.2-0.2-0.5-0.3-0.7-0.3-0.2 0-0.7 0.2-1.6 0.7-0.7 0.4-1.7 0.6-2.8 0.8-0.4 0.1-0.8 0.1-1.2 0.1q-4.5 0-7.8-3.3c-1-1.1-1.7-2.2-2.2-3.4-0.5-1.2-0.8-2.7-0.8-4.7v-10.8c0-1 0.3-1.6 0.8-2 0.4-0.3 0.8-0.4 1.3-0.4z"/>
			<path id="Layer" fill-rule="evenodd" class="s0" d="m168.2 50.8c0.6 0 1.2 0.3 1.7 1 0.3 0.7 0.6 1.1 0.7 1.1 0 0 0.1 0.1 0.4 0.1h0.1c0.3 0 0.9-0.3 1.7-0.8 1.9-0.9 3.7-1.3 5.6-1.3q3.6 0 6.9 2.1c1.4 1 2.6 2.2 3.4 3.5 1.3 2.1 2 4.3 2 6.6v0.1c0 2.8-0.9 5.4-2.8 7.7-1 1.1-1.7 1.8-2.2 2.1-0.9 0.7-1.9 1.2-2.9 1.6-1.6 0.6-3 0.9-4.3 0.9-2.4 0-4.7-0.6-6.8-1.9-0.2-0.1-0.4-0.1-0.5-0.1h-0.2c-0.6 0.1-1 0.5-1 1v8.5c0 1.1-0.4 1.8-1.1 2.2-0.3 0.2-0.6 0.3-1 0.3-0.9 0-1.6-0.5-2-1.4-0.1-0.2-0.1-0.6-0.1-1v-29.9c0-1.1 0.4-1.9 1.2-2.3 0.6 0 0.9-0.1 1.2-0.1zm2 12.3c0 2.1 0.7 4 2.2 5.7 1.7 1.7 3.6 2.5 5.8 2.5h0.3c2.1 0 4-0.8 5.6-2.4 1.6-1.7 2.4-3.6 2.4-5.8q0-3.6-3-6.3c-1.2-0.9-2.4-1.5-3.8-1.7-0.5-0.1-0.8-0.1-1.1-0.1h-0.6c-1.4 0-2.8 0.5-4.3 1.4-1.5 1-2.6 2.4-3.2 4.3-0.1 0.9-0.3 1.7-0.3 2.4z"/>
			<path id="Layer" class="s0" d="m197.4 50.8c0.6 0 1.1 0.3 1.6 0.8 0.2 0.1 0.4 0.2 0.6 0.2h0.1c0.2 0 0.6-0.1 1.1-0.4 1.1-0.4 2.1-0.6 3.1-0.6 2 0 3.9 0.7 5.6 2.1 0.3 0.3 0.4 0.4 0.4 0.5q-2.4 2.4-2.4 2.4c-0.2 0.1-0.4 0.2-0.5 0.2-0.3 0-0.6-0.2-1.1-0.5-0.6-0.3-1.3-0.5-2.1-0.5-1.2 0-2.3 0.5-3.2 1.5-0.8 0.9-1.2 1.9-1.2 3.1v13.5c0 0.9-0.2 1.5-0.7 1.9-0.4 0.3-0.8 0.5-1.2 0.5h-0.2c-0.2 0-0.5-0.1-0.8-0.2-0.4-0.2-0.8-0.6-1-1.2-0.1-0.2-0.1-0.5-0.1-1v-20c0-0.8 0.2-1.4 0.7-1.8 0.3-0.3 0.8-0.5 1.3-0.5z"/>
			<path id="Layer" fill-rule="evenodd" class="s0" d="m224.2 50.7q5.1 0 9 3.9c0.9 1 1.4 1.8 1.4 2.3q0 0.2 0 0.3c0 0.5-0.2 1-0.7 1.5-0.3 0.2-4.2 3-11.9 8.5 0 0-0.6 0.5-1.9 1.4-0.2 0.2-0.3 0.4-0.3 0.7v0.1c0 0.3 0.2 0.6 0.5 0.8 1.3 0.7 2.5 1 3.7 1h0.5c1.8 0 3.6-0.7 5.2-2.1 0.9-0.9 1.4-1.6 1.6-2 0.3-0.4 0.5-1 0.8-1.8 0.2-0.8 0.4-1.3 0.7-1.6q0.7-0.6 1.5-0.6c1 0 1.6 0.5 2 1.4 0.1 0.2 0.1 0.4 0.1 0.6v0.1q0 0.9-0.9 3c-0.3 0.8-0.9 1.6-1.7 2.6-0.8 0.9-1.5 1.6-2.1 2-1 0.8-2 1.3-2.8 1.6-1.5 0.6-3 0.9-4.4 0.9h-0.5c-2.5 0-4.9-0.8-7.1-2.4-1.1-0.8-2-1.8-2.7-2.8-0.5-0.8-0.9-1.5-1.2-2.2-0.7-1.7-1.1-3.4-1.1-4.9 0-2.9 1-5.6 2.9-8 0.9-1 1.6-1.6 2-1.8 2.3-1.6 4.7-2.5 7.4-2.5zm-8.1 12.3c0 1.1 0.1 1.8 0.4 2 0.2 0.2 0.5 0.3 0.8 0.3 0.2 0 0.7-0.3 1.3-0.8 0.1 0 3.3-2.3 9.6-6.8 0.2-0.2 0.4-0.5 0.4-0.8v-0.1c0-0.3-0.2-0.5-0.5-0.8-1.3-0.7-2.5-1-3.7-1h-0.4c-1.9 0-3.7 0.7-5.4 2.2-1.7 1.6-2.5 3.6-2.5 5.8z"/>
			<path id="Layer" class="s0" d="m241.7 50.8c0.7 0 1.3 0.3 1.8 1 0.2 0.3 0.5 0.5 0.9 0.5 0.2 0 0.7-0.2 1.6-0.6q1.6-0.6 3.3-0.6c2.2 0 4.3 0.7 6.1 2.2 0.5 0.5 0.9 0.8 1.2 0.8h0.1c0.3 0 0.8-0.4 1.6-1.1 1.8-1.3 3.7-1.9 5.9-1.9 2.3 0 4.4 0.8 6.4 2.5 1 1.1 1.7 1.9 1.9 2.5 0.7 1.4 1.1 2.6 1.1 3.6v13.5c0 0.8-0.4 1.4-1.3 1.8-0.1 0.1-0.4 0.1-0.7 0.2-0.8 0-1.4-0.4-1.9-1.2-0.1-0.3-0.2-0.7-0.2-1.2v-13c-0.1-0.8-0.4-1.6-1.1-2.5-1.2-1.4-2.6-2.1-4.3-2.1-1.6 0-3 0.6-4.1 1.9-0.4 0.5-0.7 1-0.9 1.6-0.2 0.6-0.3 0.9-0.3 1.1v13.1c0 1.1-0.4 1.9-1.2 2.3-0.2 0.1-0.4 0.1-0.8 0.2-0.8 0-1.5-0.4-1.9-1.2-0.1-0.3-0.2-0.7-0.2-1.2v-13.3c0-0.6-0.3-1.3-1-2.3-1.2-1.5-2.7-2.2-4.4-2.2q-2.7 0-4.5 2.4c-0.5 0.9-0.8 1.6-0.8 2.2v13c0 1.2-0.4 1.9-1.2 2.3-0.3 0.1-0.5 0.2-0.8 0.2-0.7 0-1.3-0.4-1.8-1.1-0.2-0.3-0.2-0.8-0.2-1.4v-19.6c0-1 0.3-1.7 0.8-2 0-0.3 0.4-0.4 0.9-0.4z"/>
			<path id="Layer" fill-rule="evenodd" class="s0" d="m289.2 50.7q5.1 0 9 3.9c0.9 1 1.4 1.8 1.4 2.3q0 0.2 0 0.3c0 0.5-0.2 1-0.7 1.5-0.3 0.2-4.2 3-11.9 8.5 0 0-0.6 0.5-1.9 1.4-0.2 0.2-0.3 0.4-0.3 0.7v0.1c0 0.3 0.2 0.6 0.5 0.8 1.3 0.7 2.5 1 3.7 1h0.5c1.8 0 3.6-0.7 5.2-2.1 0.9-0.9 1.4-1.6 1.6-2 0.3-0.4 0.5-1 0.8-1.8 0.2-0.8 0.4-1.3 0.7-1.6q0.8-0.6 1.5-0.6c1 0 1.6 0.5 2 1.4 0.1 0.2 0.1 0.4 0.1 0.6v0.1q0 0.9-0.9 3c-0.3 0.8-0.9 1.6-1.7 2.6-0.8 0.9-1.5 1.6-2.1 2-1 0.8-2 1.3-2.8 1.6-1.5 0.6-3 0.9-4.4 0.9h-0.5c-2.5 0-4.9-0.8-7.1-2.4-1.1-0.8-2-1.8-2.7-2.8-0.5-0.8-0.9-1.5-1.2-2.2-0.7-1.7-1.1-3.4-1.1-4.9 0-2.9 1-5.6 2.9-8 0.9-1 1.6-1.6 2-1.8 2.3-1.6 4.7-2.5 7.4-2.5zm-8.1 12.3c0 1.1 0.1 1.8 0.4 2 0.2 0.2 0.5 0.3 0.8 0.3 0.2 0 0.7-0.3 1.3-0.8 0.1 0 3.3-2.3 9.6-6.8 0.2-0.2 0.4-0.5 0.4-0.8v-0.1c0-0.3-0.2-0.5-0.5-0.8-1.3-0.7-2.5-1-3.7-1h-0.4c-1.9 0-3.7 0.7-5.4 2.2-1.7 1.6-2.5 3.6-2.5 5.8z"/>
			<path id="Layer" class="s0" d="m317.2 40.9h25c1.2 0 1.9 0.5 2.3 1.4 0.1 0.3 0.1 0.5 0.1 0.7 0 1-0.5 1.6-1.5 2-0.2 0.1-0.5 0.1-0.9 0.1h-8.4c-0.9 0-1.6 0.5-2 1.4-0.1 0.2-0.1 0.3-0.1 0.4v25.8c0 1.2-0.4 2-1.3 2.4-0.3 0.1-0.6 0.1-0.8 0.1-0.8 0-1.4-0.4-1.9-1.2-0.1-0.3-0.2-0.7-0.2-1.3v-25.5c0-0.9-0.4-1.5-1.3-1.9-0.2-0.1-0.5-0.1-0.7-0.1h-8.4c-1.2 0-1.9-0.5-2.3-1.4-0.1-0.3-0.1-0.5-0.1-0.7 0-1 0.5-1.6 1.5-2 0.3-0.1 0.6-0.2 1-0.2z"/>
			<path id="Layer" fill-rule="evenodd" class="s0" d="m358.3 50.7q5.1 0 9 3.9c0.9 1 1.4 1.8 1.4 2.3q0 0.2 0 0.3c0 0.5-0.2 1-0.7 1.5-0.3 0.2-4.2 3-11.9 8.5 0 0-0.6 0.5-1.9 1.4-0.2 0.2-0.3 0.4-0.3 0.7v0.1c0 0.3 0.2 0.6 0.5 0.8 1.3 0.7 2.5 1 3.7 1h0.5c1.8 0 3.6-0.7 5.2-2.1 0.9-0.9 1.4-1.6 1.6-2 0.3-0.4 0.5-1 0.8-1.8 0.2-0.8 0.4-1.3 0.7-1.6q0.7-0.6 1.5-0.6c1 0 1.6 0.5 2 1.4 0.1 0.2 0.1 0.4 0.1 0.6v0.1q0 0.9-0.9 3c-0.3 0.8-0.9 1.6-1.7 2.6-0.8 0.9-1.5 1.6-2.1 2-1 0.8-2 1.3-2.8 1.6-1.5 0.6-3 0.9-4.4 0.9h-0.4c-2.5 0-4.9-0.8-7.1-2.4-1.1-0.8-2-1.8-2.7-2.8-0.5-0.8-0.9-1.5-1.2-2.2-0.7-1.7-1-3.4-1-4.9 0-2.9 1-5.6 2.9-8 0.9-1 1.6-1.6 2-1.8 2.1-1.6 4.5-2.5 7.2-2.5zm-8.1 12.3c0 1.1 0.1 1.8 0.4 2 0.2 0.2 0.5 0.3 0.8 0.3 0.2 0 0.7-0.3 1.3-0.8 0.1 0 3.3-2.3 9.7-6.8 0.2-0.2 0.4-0.5 0.4-0.8v-0.1c0-0.3-0.2-0.5-0.5-0.8-1.3-0.7-2.5-1-3.7-1h-0.5c-1.9 0-3.7 0.7-5.4 2.2-1.7 1.6-2.5 3.6-2.5 5.8z"/>
			<path id="Layer" class="s0" d="m385.1 50.8c2.5 0 4.9 0.7 7 2.2 0.5 0.4 0.7 1 0.7 1.6 0 0.7-0.4 1.3-1.1 1.7-0.4 0.2-0.7 0.3-1 0.3-0.5 0-1.1-0.2-1.8-0.7-1.2-0.7-2.5-1-3.9-1h-0.1c-1.2 0-2.5 0.4-3.9 1.1-1.7 1.1-2.9 2.5-3.6 4.4-0.3 0.9-0.4 1.8-0.4 2.6 0 2.3 0.9 4.2 2.6 6q1.6 1.3 3.3 1.8c0.8 0.2 1.4 0.3 2 0.3h0.2c1.6 0 3.2-0.5 4.6-1.4 0.4-0.2 0.7-0.3 1.1-0.3 0.6 0 1.2 0.3 1.7 0.9 0.2 0.4 0.3 0.8 0.3 1.1 0 0.9-0.4 1.5-1.3 2-1.9 1.2-4.1 1.8-6.5 1.8-2.6 0-5.1-0.9-7.4-2.6-0.5-0.4-1.1-1-1.7-1.7-0.7-0.8-1.2-1.5-1.4-2-1.1-1.9-1.6-3.9-1.6-6 0-2.7 0.8-5.1 2.5-7.4 0.3-0.4 0.8-1 1.6-1.7 0.9-0.7 1.7-1.3 2.5-1.7 1.7-0.9 3.6-1.3 5.6-1.3z"/>
			<path id="Layer" class="s0" d="m399.5 41h0.2q1 0 1.8 1.2c0.1 0.3 0.2 0.6 0.2 0.8v8.2c0 0.5 0.2 0.8 0.7 1 0.1 0 0.1 0 0.2 0q0.3 0 1.5-0.6c1.3-0.5 2.7-0.8 4-0.8 2.7 0 5.1 0.9 7.2 2.8 1 1 1.6 1.7 1.8 2.2q1 1.7 1.5 3.6c0.2 0.6 0.3 1.7 0.3 3.1v10.6c0 1.1-0.4 1.9-1.3 2.2-0.3 0.1-0.6 0.2-0.7 0.2h-0.1q-1.2 0-1.8-1.2c-0.1-0.3-0.2-0.6-0.2-1.1v-11.7c0-1.8-0.6-3.4-1.9-4.7-1.3-1.3-2.9-1.9-4.7-1.9-1.9 0-3.5 0.7-4.9 2.3-1.1 1.2-1.6 2.7-1.6 4.4v11.8c0 0.6-0.3 1.1-0.9 1.6-0.4 0.2-0.7 0.4-1.1 0.4h-0.2c-0.7 0-1.2-0.4-1.7-1.1-0.2-0.3-0.3-0.8-0.3-1.4v-29.5c0-1.1 0.4-1.9 1.2-2.3 0.3-0.1 0.5-0.1 0.8-0.1z"/>
			<path id="Layer" class="s0" d="m425.5 50.8c0.7 0 1.3 0.3 1.7 0.9 0.3 0.4 0.6 0.6 1 0.6 0.2 0 0.6-0.2 1.1-0.5 1.5-0.7 3.1-1.1 4.7-1.1 3.2 0 5.9 1.2 8.1 3.7 0.8 1 1.4 1.9 1.6 2.6 0.6 1.3 1 2.9 1 5v10.8c0 1-0.3 1.6-0.8 2-0.4 0.3-0.8 0.5-1.3 0.5-0.5 0-1-0.2-1.5-0.7-0.4-0.4-0.5-0.9-0.5-1.7v-10.8c0-1.5-0.2-2.7-0.6-3.4-0.8-1.6-2-2.8-3.8-3.4-0.8-0.2-1.5-0.4-2.2-0.4-1.9 0-3.5 0.7-4.9 2.2q-1 1.4-1.5 3c-0.1 0.4-0.1 1.1-0.1 2v10.7c0 1-0.3 1.6-0.8 2-0.4 0.3-0.8 0.5-1.3 0.5-0.5 0-1-0.2-1.5-0.7-0.4-0.4-0.6-0.9-0.6-1.7v-19.7q0-1.2 0.6-1.8c0.6-0.4 1.1-0.6 1.6-0.6z"/>
			<path id="Layer" fill-rule="evenodd" class="s0" d="m461.6 50.7h0.4c2.5 0 5 0.9 7.3 2.6 1.1 0.9 1.8 1.7 2.3 2.3 1.6 2.2 2.4 4.7 2.4 7.4 0 3.2-1.2 6.1-3.5 8.6-1.3 1.2-2.5 2-3.6 2.5-1.7 0.8-3.4 1.2-5 1.2h-0.4c-2.6 0-5-0.9-7.4-2.6q-1.4-1-2.1-2.1c-1.8-2.3-2.6-4.8-2.6-7.6 0-3 1.1-5.8 3.2-8.2 1.1-1.1 1.9-1.8 2.3-2 2.3-1.4 4.4-2.1 6.7-2.1zm-7.9 12.3v0.2c0 2.1 0.8 3.9 2.4 5.7 1.7 1.5 3.5 2.3 5.5 2.3h0.3c2.2 0 4.2-0.9 5.9-2.7 1.4-1.6 2-3.4 2-5.2v-0.3c0-2.3-0.8-4.3-2.5-5.9-0.9-0.8-1.9-1.4-2.8-1.7-0.9-0.3-1.8-0.5-2.5-0.5h-0.5c-1.3 0-2.7 0.4-4.1 1.2q-0.8 0.4-1.8 1.5c-0.8 1.1-1.4 2-1.6 2.8-0.2 0.8-0.3 1.7-0.3 2.6z"/>
			<path id="Layer" class="s0" d="m480.8 41c0.8 0 1.4 0.4 1.8 1.3 0.1 0.3 0.1 0.6 0.1 1v29.7c0 1.1-0.4 1.7-1.1 2.1-0.2 0.1-0.4 0.1-0.8 0.2-0.8 0-1.4-0.4-1.8-1.3-0.1-0.3-0.1-0.6-0.1-1v-29.8c0-1.1 0.4-1.7 1.2-2.1 0.1 0 0.4-0.1 0.7-0.1z"/>
			<path id="Layer" fill-rule="evenodd" class="s0" d="m499.5 50.7h0.4c2.5 0 5 0.9 7.4 2.6 1.1 0.9 1.8 1.7 2.3 2.3 1.6 2.2 2.4 4.7 2.4 7.4 0 3.2-1.2 6.1-3.5 8.6-1.3 1.2-2.5 2-3.6 2.5-1.7 0.8-3.4 1.2-5 1.2h-0.4c-2.6 0-5-0.9-7.4-2.6q-1.4-1-2.1-2.1c-1.8-2.3-2.6-4.8-2.6-7.6 0-3 1.1-5.8 3.2-8.2 1.1-1.1 1.9-1.8 2.3-2q3.3-2.1 6.6-2.1zm-7.9 12.3v0.2c0 2.1 0.8 3.9 2.4 5.7 1.7 1.5 3.5 2.3 5.5 2.3h0.3c2.2 0 4.2-0.9 5.9-2.7 1.4-1.6 2-3.4 2-5.2v-0.3c0-2.3-0.8-4.3-2.5-5.9-0.9-0.8-1.9-1.4-2.8-1.7-0.9-0.3-1.8-0.5-2.5-0.5h-0.5c-1.3 0-2.7 0.4-4.1 1.2q-0.8 0.4-1.8 1.5c-0.8 1.1-1.4 2-1.6 2.8-0.1 0.8-0.3 1.7-0.3 2.6z"/>
			<path id="Layer" fill-rule="evenodd" class="s0" d="m538.7 50.8c0.5 0 1 0.2 1.5 0.7 0.4 0.4 0.6 0.9 0.6 1.8v19.9c0 2.2-0.6 4.3-1.9 6.4-0.3 0.6-1 1.4-2 2.3-1 0.9-2.1 1.7-3.2 2.2q-2.7 1.2-5.1 1.2h-0.2c-0.7 0-1.2-0.3-1.7-1-0.2-0.4-0.4-0.8-0.4-1.1 0-0.7 0.3-1.3 1-1.8q0.4-0.3 1.8-0.3c0.7-0.1 1.3-0.2 1.9-0.5 2.1-0.8 3.6-2.2 4.6-4q0.9-1.8 0.9-3.6v-0.6c0 0 0 0-0.1 0q-2.3 1.9-5.1 2.7c-1 0.2-2 0.4-2.9 0.4-3.7 0-6.8-1.4-9.4-4.3-1.5-1.7-2.4-3.7-2.8-6-0.1-0.8-0.2-1.5-0.2-1.8v-0.4c0-1.6 0.4-3.2 1.1-4.9 0.3-0.7 0.8-1.6 1.6-2.6 1-1.1 1.8-1.9 2.6-2.4 2.2-1.5 4.5-2.2 6.9-2.2h0.4c2 0 4 0.6 6.1 1.7 0.4 0.3 0.7 0.4 1 0.4 0.5 0 0.9-0.4 1.1-1.1 0.5-0.7 1.1-1.1 1.9-1.1zm-18.4 12.2v0.3c0 2.1 0.8 4 2.5 5.7 0.9 0.8 1.8 1.3 2.4 1.6 1.1 0.4 2.2 0.6 3.2 0.6 2.4 0 4.4-0.9 6.2-2.8 1.3-1.6 2-3.3 2-5.1v-0.3c0-2.1-0.8-4-2.5-5.7-0.9-0.8-1.7-1.3-2.4-1.6-1.1-0.4-2.2-0.7-3.2-0.7-2.4 0-4.4 0.9-6.2 2.8-1.3 1.6-2 3.3-2 5.2z"/>
			<path id="Layer" class="s0" d="m547.4 42.5h0.1c0.9 0 1.7 0.5 2.2 1.4 0.2 0.3 0.3 0.7 0.3 1.1v0.2c0 0.9-0.5 1.6-1.5 2.2-0.4 0.2-0.7 0.2-1.1 0.2-1.1 0-1.9-0.5-2.4-1.6-0.1-0.3-0.2-0.6-0.2-0.8v-0.2c0-1.1 0.6-1.9 1.7-2.4 0.4 0 0.7-0.1 0.9-0.1zm-0.1 8.3h0.3c0.5 0 1 0.3 1.5 0.8 0.3 0.4 0.4 0.8 0.4 1.1v20.6q0 1.2-1.2 1.8c-0.3 0.1-0.6 0.2-0.7 0.2h-0.2c-0.7 0-1.2-0.4-1.7-1.1-0.2-0.3-0.3-0.8-0.3-1.4v-19.5c0-1.1 0.3-1.8 1-2.2q0.5-0.3 0.9-0.3z"/>
			<path id="Layer" fill-rule="evenodd" class="s0" d="m565.2 50.7q5.1 0 9 3.9c0.9 1 1.4 1.8 1.4 2.3q0 0.2 0 0.3c0 0.5-0.2 1-0.7 1.5-0.3 0.2-4.2 3-11.9 8.5 0 0-0.6 0.5-1.9 1.4-0.2 0.2-0.3 0.4-0.3 0.7v0.1c0 0.3 0.2 0.6 0.5 0.8 1.3 0.7 2.5 1 3.7 1h0.5c1.8 0 3.6-0.7 5.2-2.1 0.9-0.9 1.4-1.6 1.6-2 0.3-0.4 0.5-1 0.8-1.8 0.2-0.8 0.4-1.3 0.7-1.6q0.8-0.6 1.5-0.6c1 0 1.6 0.5 2 1.4 0.1 0.2 0.1 0.4 0.1 0.6v0.1q0 0.9-0.9 3c-0.3 0.8-0.9 1.6-1.6 2.6-0.8 0.9-1.5 1.6-2.1 2-1 0.8-2 1.3-2.8 1.6-1.5 0.6-3 0.9-4.4 0.9h-0.6c-2.5 0-4.9-0.8-7.1-2.4-1.1-0.8-2-1.8-2.7-2.8-0.5-0.8-0.9-1.5-1.2-2.2-0.7-1.7-1.1-3.4-1.1-4.9 0-2.9 1-5.6 2.9-8 0.9-1 1.6-1.6 2-1.8 2.2-1.6 4.7-2.5 7.4-2.5zm-8.2 12.3c0 1.1 0.1 1.8 0.4 2 0.2 0.2 0.5 0.3 0.8 0.3 0.2 0 0.7-0.3 1.3-0.8 0.1 0 3.3-2.3 9.6-6.8 0.2-0.2 0.4-0.5 0.4-0.8v-0.1c0-0.3-0.2-0.5-0.5-0.8-1.3-0.7-2.5-1-3.7-1h-0.5c-1.9 0-3.7 0.7-5.4 2.2-1.5 1.6-2.4 3.6-2.4 5.8z"/>
			<path id="Layer" class="s0" d="m587.8 50.7c1 0 2.1 0.3 3.1 0.9 1.5 1 2.2 2 2.2 3 0 0.7-0.4 1.3-1.1 1.8-0.3 0.2-0.7 0.3-1.1 0.3-0.5 0-1.1-0.3-1.6-0.8-0.4-0.7-1-1.1-1.6-1.1h-0.1c-0.7 0-1.3 0.4-1.6 1.1-0.1 0.3-0.1 0.5-0.1 0.7 0 0.7 0.4 1.3 1.3 1.8 3.1 2.1 4.8 3.2 5.2 3.5q0.9 0.7 1.2 1.2c1 1.4 1.6 2.9 1.6 4.5 0 2.5-1 4.6-3 6.1-1.4 1-2.8 1.4-4.5 1.4-1.5 0-3-0.5-4.4-1.4-0.9-0.7-1.6-1.4-2-2.2q-0.6-1.1-0.6-1.8c0-0.6 0.3-1.2 0.9-1.6 0.4-0.2 0.8-0.4 1.2-0.4 0.8 0 1.4 0.4 1.8 1.1 0.2 0.4 0.4 0.8 0.6 1.1 0.7 0.8 1.6 1.2 2.5 1.2 1.1 0 2-0.4 2.7-1.3 0.4-0.6 0.6-1.3 0.6-2 0-1.3-0.7-2.3-2.1-3.2-3-2-4.6-3.1-4.9-3.3-1.5-1.3-2.2-2.8-2.2-4.7 0-1.5 0.6-2.8 1.7-4.1 1.2-1.2 2.6-1.8 4.3-1.8z"/>
		</g>
	</g>
	<g id="Layer">
		<path id="Layer" class="s1" d="m69.8 24.7c0 1.9-1.6 3.5-3.5 3.5h-26v26c0 2-1.6 3.5-3.5 3.5-1.9 0-3.5-1.6-3.5-3.5v-29.5c0-1.9 1.6-3.4 3.5-3.4h29.5c1.9 0 3.5 1.5 3.5 3.4z"/>
		<path id="Layer" class="s2" d="m110.4 24.7v29.5c0 1.9-1.6 3.5-3.5 3.5-1.9 0-3.5-1.6-3.5-3.5v-26h-26c-1.9 0-3.5-1.6-3.5-3.5 0-1.9 1.6-3.5 3.5-3.5h29.6c1.9 0 3.4 1.6 3.4 3.5z"/>
		<path id="Layer" class="s3" d="m110.5 65.4v29.5c0 0.2-0.1 0.5-0.1 0.7-0.3 1.6-1.7 2.8-3.4 2.8h-29.5c-1.9 0-3.5-1.6-3.5-3.5 0-1.9 1.6-3.5 3.5-3.5h26v-26c0-1.9 1.6-3.5 3.5-3.5 1.9 0 3.4 1.6 3.5 3.5z"/>
		<path id="Layer" class="s4" d="m69.8 95c0 1.9-1.6 3.5-3.5 3.5h-29.5c-1.9 0-3.5-1.6-3.5-3.5v-29.5c0-2 1.6-3.5 3.5-3.5 1.9 0 3.5 1.6 3.5 3.5v26h26c1.9 0 3.5 1.5 3.5 3.5z"/>
		<path id="Layer" class="s5" d="m99.2 49.2c0 0.8-0.3 1.5-0.8 2-0.6 0.5-1.2 0.8-2 0.8h-7.4v17.6c0 0.8-0.3 1.5-0.8 2-0.6 0.5-1.2 0.8-2 0.8-0.8 0-1.5-0.3-2-0.8-0.5-0.6-0.8-1.2-0.8-2v-17.5h-30c-0.6 0-1.2 0.3-1.6 0.7-0.5 0.4-0.7 1-0.7 1.6 0 0.6 0.2 1.2 0.7 1.6 0.4 0.5 1 0.7 1.6 0.7h10.1c2.1 0 4 0.8 5.5 2.3 1.5 1.5 2.3 3.4 2.3 5.5 0 2.1-0.8 4-2.3 5.5-1.5 1.5-3.3 2.3-5.5 2.3h-15.2c-0.8 0-1.5-0.3-2-0.8-0.5-0.6-0.8-1.2-0.8-2 0-0.8 0.3-1.5 0.8-2 0.6-0.5 1.2-0.8 2-0.8h15.3c0.6 0 1.2-0.2 1.6-0.7 0.5-0.4 0.7-1 0.7-1.6 0-0.6-0.2-1.2-0.7-1.6-0.4-0.5-1-0.7-1.6-0.7h-10.2c-2.1 0-4-0.8-5.5-2.3-1.5-1.5-2.3-3.3-2.3-5.5 0-2.1 0.8-4 2.3-5.5 1.5-1.5 3.3-2.3 5.5-2.3h42.9c0.8 0 1.5 0.3 2 0.8 0.5 0.5 0.8 1.1 0.9 1.9z"/>
	</g>
	<!-- <g id="Layer">
		<path id="Layer" class="s6" d="m11.6 27.7l-0.3-0.9c0 0 1.3 1.6 2 3.1 0.7 1.5 0.3 2.3 0.3 2.3l0.3-0.4c0 0 0.8 1.8-0.4 3.3-1.2 1.4-2.6 1-2.6 1l0.6 0.3c-1 1-3.4 0.8-4.9 0.3-1.5-0.5-1.4-2.7-1.4-2.7-0.2 0.3-0.3 0.9-0.3 0.9 0 0 0 0.1-0.6-1.1-0.6-1.2 0.4-2.3 0.4-2.3 0 0-0.4 0.4-0.5-0.3-0.2-0.7 0.6-2 1.1-2.8 0.5-0.8 2.1-1.5 2.1-1.5 1.8-1 4.2 0.9 4.2 0.8z"/>
		<path id="Layer" class="s7" d="m11.5 31.1c0.7-0.2 1.3-0.7 1.8-1.2 0.7 1.5 0.3 2.3 0.3 2.3l0.3-0.4c0 0 0.8 1.8-0.4 3.3-1.2 1.4-2.6 1-2.6 1l0.6 0.3c-1 1-3.4 0.8-4.9 0.3-1.5-0.5-1.4-2.7-1.4-2.7-0.2 0.3-0.3 0.8-0.3 0.8 0 0 0 0.1-0.6-1.1-0.6-1.2 0.4-2.3 0.4-2.3 0 0-0.4 0.4-0.5-0.3-0.1-0.6 0.5-1.9 1.1-2.7 0.1 2.1 0.3 4.8 2.7 4.8-0.5-0.1-0.4-0.6-0.5-0.9 1.1 1.1 3.1 1.7 4.5 0.3-0.8-0.4 1.2-1.3-0.5-1.5z"/>
		<path id="Layer" class="s7" d="m7.5 32.3c0-0.1-0.1-0.1-0.1-0.2 0 0.1 0 0.2 0.1 0.2z"/>
		<path id="Layer" class="s8" d="m54.8 14.6c0.8 2.9-24.2 21.3-28.9 21.3 0 0-2.3-1.7-3.1-5.1-0.3-1.5-0.9-2.9-1.7-4.1-0.2-0.3-0.4-0.7-0.6-1.1-0.8-1.5-2.6-2.2-4.1-1.5q-0.9 0.4-2.1 0.6c-3.6 0.5-4.2 2.3-4.2 3.2 0 0.5-0.4 1.1-0.9 1.3-0.4 0.1-0.9 0.1-1.3-0.4-1-1.1 0.5-14.2 4.6-18.9 4.1-4.7 10.4-6.3 12.1-6.5 3.2-0.3 11.2 0.2 13.7 2.4 4.3 0.4 9 2 10.7 3.9 2.2 2.5 5 2.1 5.8 4.9z"/>
		<path id="Layer" class="s9" d="m54.9 14.7c0.8 2.9-24.2 21.3-28.9 21.3 0 0-2.3-1.7-3.1-5.1-0.3-1.5-0.9-2.9-1.7-4.1-0.2-0.3-0.4-0.7-0.6-1.1-0.8-1.5-2.6-2.2-4.1-1.5q-0.9 0.4-2.1 0.6c-3.6 0.5-4.2 2.3-4.2 3.2 0 0.5-0.4 1.1-0.9 1.3-0.4 0.1-0.9 0.1-1.3-0.4-0.4-0.5-0.4-2.9 0-5.9 0.5 0.2 1.1 0.3 1.7 0.3 4.4-0.1 8.1-5.7 6.5-11 2.8 3.7 2.3 9.3 6.4 11.2 1.8 0.7 2.6-1.8 4.1-3.2-1.5 2.6-2.8 8.5-0.2 7.7 9-2.8 18-8.8 24.6-16.6 1.6 0.9 3.1 1.3 3.8 3.3z"/>
		<g id="Layer">
			<path id="Layer" class="s6" d="m30.6 43.1c0 0-5.1-3.5-5.3-7-0.2-3.5 25.9-23.8 30.3-21.9 4.4 2 5.3 5.7 4.9 6.8-0.4 1.1-18.6 7.3-29.9 22.1z"/>
		</g>
		<path id="Layer" class="s10" d="m29.3 4.7c0 0-7.5-1.5-8.3 3.2-0.8 4.7 14.6-1.1 8.3-3.2z"/>
	</g> -->
</svg>